<svg fill="none" height="300" viewBox="0 0 1019 300" width="1019" xmlns="http://www.w3.org/2000/svg"><g fill="#f4ff75"><path d="m150 300c0-19.698-3.88-39.204-11.418-57.403-7.539-18.198-18.587-34.734-32.516-48.663s-30.4648-24.978-48.6636-32.516-37.7042-11.418-57.4024-11.418l.00000656 150z"/><path d="m0 150c19.6982 0 39.2036-3.88 57.4024-11.418s34.7347-18.587 48.6636-32.516c13.929-13.9288 24.978-30.4646 32.516-48.6635 7.538-18.1988 11.418-37.7042 11.418-57.4025h-149.99995682z"/><path d="m150 300c19.698 0 39.203-3.88 57.402-11.418s34.735-18.587 48.664-32.516c13.928-13.929 24.977-30.465 32.515-48.663 7.539-18.199 11.418-37.705 11.418-57.403h-149.999z"/><path d="m299.999 150c0-19.698-3.879-39.204-11.418-57.4025-7.538-18.1989-18.587-34.7347-32.515-48.6635-13.929-13.9288-30.465-24.9777-48.664-32.5159-18.199-7.53824-37.704-11.41810086-57.402-11.4181v150z"/><path d="m299.999 300c19.699 0 39.204-3.88 57.403-11.418s34.734-18.587 48.663-32.516 24.978-30.465 32.516-48.663c7.538-18.199 11.418-37.705 11.418-57.403h-150z"/><path d="m299.999 150c19.699 0 39.204-3.88 57.403-11.418s34.734-18.587 48.663-32.516c13.929-13.9288 24.978-30.4646 32.516-48.6635 7.538-18.1988 11.418-37.7042 11.418-57.4025h-150z"/><path d="m526.415 96.5v-11.136h8.832v-44.9279h-8.832v-11.136h34.56c4.096 0 7.648.704 10.656 2.112 3.072 1.344 5.44 3.296 7.104 5.856 1.728 2.496 2.592 5.504 2.592 9.024v.9599c0 3.072-.576 5.6-1.728 7.584-1.152 1.92-2.528 3.424-4.128 4.512-1.536 1.024-3.008 1.76-4.416 2.208v1.728c1.408.384 2.944 1.12 4.608 2.208 1.664 1.024 3.072 2.528 4.224 4.512 1.216 1.984 1.824 4.576 1.824 7.776v.96c0 3.712-.864 6.912-2.592 9.6-1.728 2.624-4.128 4.64-7.2 6.048-3.008 1.408-6.528 2.112-10.56 2.112zm21.504-11.52h11.904c2.752 0 4.96-.672 6.624-2.016 1.728-1.344 2.592-3.264 2.592-5.76v-.96c0-2.496-.832-4.416-2.496-5.76s-3.904-2.016-6.72-2.016h-11.904zm0-28.032h11.712c2.624 0 4.768-.672 6.432-2.016 1.728-1.344 2.592-3.2 2.592-5.568v-.96c0-2.432-.832-4.2879-2.496-5.5679-1.664-1.344-3.84-2.016-6.528-2.016h-11.712z"/><path d="m589.589 96.5v-47.616h12.096v47.616zm6.048-53.1839c-2.176 0-4.032-.704-5.568-2.112-1.472-1.408-2.208-3.264-2.208-5.568s.736-4.16 2.208-5.568c1.536-1.408 3.392-2.112 5.568-2.112 2.24 0 4.096.704 5.568 2.112s2.208 3.264 2.208 5.568-.736 4.16-2.208 5.568-3.328 2.112-5.568 2.112z"/><path d="m630.449 96.5c-3.136 0-5.696-.96-7.68-2.88-1.92-1.984-2.88-4.608-2.88-7.872v-26.88h-11.904v-9.984h11.904v-14.7839h12.096v14.7839h13.056v9.984h-13.056v24.768c0 1.92.896 2.88 2.688 2.88h9.216v9.984z"/><path d="m673.791 97.844c-4.608 0-8.8-.96-12.576-2.88-3.712-1.92-6.656-4.704-8.832-8.352s-3.264-8.064-3.264-13.248v-1.344c0-5.184 1.088-9.6 3.264-13.248s5.12-6.432 8.832-8.352c3.776-1.92 7.968-2.88 12.576-2.88 4.544 0 8.448.8 11.712 2.4s5.888 3.808 7.872 6.624c2.048 2.752 3.392 5.888 4.032 9.408l-11.712 2.496c-.256-1.92-.832-3.648-1.728-5.184s-2.176-2.752-3.84-3.648c-1.6-.896-3.616-1.344-6.048-1.344s-4.64.544-6.624 1.632c-1.92 1.024-3.456 2.592-4.608 4.704-1.088 2.048-1.632 4.576-1.632 7.584v.96c0 3.008.544 5.568 1.632 7.68 1.152 2.048 2.688 3.616 4.608 4.704 1.984 1.024 4.192 1.536 6.624 1.536 3.648 0 6.4-.928 8.256-2.784 1.92-1.92 3.136-4.416 3.648-7.488l11.712 2.784c-.832 3.392-2.272 6.496-4.32 9.312-1.984 2.752-4.608 4.928-7.872 6.528s-7.168 2.4-11.712 2.4z"/><path d="m727.449 97.844c-4.736 0-8.992-.96-12.768-2.88s-6.752-4.704-8.928-8.352-3.264-8.032-3.264-13.152v-1.536c0-5.12 1.088-9.504 3.264-13.152s5.152-6.432 8.928-8.352 8.032-2.88 12.768-2.88 8.992.96 12.768 2.88 6.752 4.704 8.928 8.352 3.264 8.032 3.264 13.152v1.536c0 5.12-1.088 9.504-3.264 13.152s-5.152 6.432-8.928 8.352-8.032 2.88-12.768 2.88zm0-10.752c3.712 0 6.784-1.184 9.216-3.552 2.432-2.432 3.648-5.888 3.648-10.368v-.96c0-4.48-1.216-7.904-3.648-10.272-2.368-2.432-5.44-3.648-9.216-3.648-3.712 0-6.784 1.216-9.216 3.648-2.432 2.368-3.648 5.792-3.648 10.272v.96c0 4.48 1.216 7.936 3.648 10.368 2.432 2.368 5.504 3.552 9.216 3.552z"/><path d="m760.694 96.5v-47.616h12.096v47.616zm6.048-53.1839c-2.176 0-4.032-.704-5.568-2.112-1.472-1.408-2.208-3.264-2.208-5.568s.736-4.16 2.208-5.568c1.536-1.408 3.392-2.112 5.568-2.112 2.24 0 4.096.704 5.568 2.112s2.208 3.264 2.208 5.568-.736 4.16-2.208 5.568-3.328 2.112-5.568 2.112z"/><path d="m783.314 96.5v-47.616h11.904v6.24h1.728c.768-1.664 2.208-3.232 4.32-4.704 2.112-1.536 5.312-2.3039 9.6-2.3039 3.712 0 6.944.8639 9.696 2.5919 2.816 1.664 4.992 4 6.528 7.008 1.536 2.944 2.304 6.4 2.304 10.368v28.416h-12.096v-27.456c0-3.584-.896-6.272-2.688-8.064-1.728-1.792-4.224-2.688-7.488-2.688-3.712 0-6.592 1.248-8.64 3.744-2.048 2.432-3.072 5.856-3.072 10.272v24.192z"/><path d="m526.415 183.5v-11.136h8.832v-44.928h-8.832v-11.136h27.648c9.024 0 15.872 2.304 20.544 6.912 4.736 4.544 7.104 11.328 7.104 20.352v12.672c0 9.024-2.368 15.84-7.104 20.448-4.672 4.544-11.52 6.816-20.544 6.816zm21.504-11.52h6.336c5.12 0 8.864-1.344 11.232-4.032s3.552-6.464 3.552-11.328v-13.44c0-4.928-1.184-8.704-3.552-11.328-2.368-2.688-6.112-4.032-11.232-4.032h-6.336z"/><path d="m611.473 184.844c-4.736 0-8.928-.992-12.576-2.976-3.584-2.048-6.4-4.896-8.448-8.544-1.984-3.712-2.976-8.064-2.976-13.056v-1.152c0-4.992.992-9.312 2.976-12.96 1.984-3.712 4.768-6.56 8.352-8.544 3.584-2.048 7.744-3.072 12.48-3.072 4.672 0 8.736 1.056 12.192 3.168 3.456 2.048 6.144 4.928 8.063 8.64 1.92 3.648 2.881 7.904 2.881 12.768v4.128h-34.656c.128 3.264 1.344 5.92 3.648 7.968s5.12 3.072 8.448 3.072c3.392 0 5.888-.736 7.488-2.208s2.815-3.104 3.647-4.896l9.888 5.184c-.896 1.664-2.207 3.488-3.935 5.472-1.664 1.92-3.904 3.584-6.72 4.992-2.816 1.344-6.4 2.016-10.752 2.016zm-11.616-30.624h22.272c-.256-2.752-1.377-4.96-3.361-6.624-1.92-1.664-4.447-2.496-7.583-2.496-3.264 0-5.856.832-7.776 2.496s-3.104 3.872-3.552 6.624z"/><path d="m662.079 184.844c-6.208 0-11.296-1.344-15.264-4.032s-6.368-6.528-7.2-11.52l11.136-2.88c.448 2.24 1.184 4 2.208 5.28 1.088 1.28 2.4 2.208 3.936 2.784 1.6.512 3.328.768 5.184.768 2.816 0 4.896-.48 6.24-1.44 1.344-1.024 2.016-2.272 2.016-3.744s-.64-2.592-1.92-3.36c-1.28-.832-3.328-1.504-6.144-2.016l-2.688-.48c-3.328-.64-6.368-1.504-9.12-2.592-2.752-1.152-4.96-2.72-6.624-4.704s-2.496-4.544-2.496-7.68c0-4.736 1.728-8.352 5.184-10.848 3.456-2.56 8-3.84 13.632-3.84 5.312 0 9.728 1.184 13.248 3.552s5.824 5.472 6.912 9.312l-11.232 3.456c-.512-2.432-1.568-4.16-3.168-5.184-1.536-1.024-3.456-1.536-5.76-1.536s-4.064.416-5.28 1.248c-1.216.768-1.824 1.856-1.824 3.264 0 1.536.64 2.688 1.92 3.456 1.28.704 3.008 1.248 5.184 1.632l2.688.48c3.584.64 6.816 1.504 9.696 2.592 2.944 1.024 5.248 2.528 6.912 4.512 1.728 1.92 2.592 4.544 2.592 7.872 0 4.992-1.824 8.864-5.472 11.616-3.584 2.688-8.416 4.032-14.496 4.032z"/><path d="m689.766 183.5v-47.616h12.096v47.616zm6.048-53.184c-2.176 0-4.032-.704-5.568-2.112-1.472-1.408-2.208-3.264-2.208-5.568s.736-4.16 2.208-5.568c1.536-1.408 3.392-2.112 5.568-2.112 2.24 0 4.096.704 5.568 2.112s2.208 3.264 2.208 5.568-.736 4.16-2.208 5.568-3.328 2.112-5.568 2.112z"/><path d="m710.082 159.884v-1.536c0-4.992.992-9.248 2.976-12.768 1.984-3.584 4.608-6.304 7.872-8.16 3.328-1.92 6.944-2.88 10.848-2.88 4.352 0 7.648.768 9.888 2.304s3.872 3.136 4.896 4.8h1.728v-5.76h11.904v56.064c0 3.264-.96 5.856-2.88 7.776-1.92 1.984-4.48 2.976-7.68 2.976h-31.872v-10.56h27.648c1.792 0 2.688-.96 2.688-2.88v-12.384h-1.728c-.64 1.024-1.536 2.08-2.688 3.168-1.152 1.024-2.688 1.888-4.608 2.592s-4.352 1.056-7.296 1.056c-3.904 0-7.52-.928-10.848-2.784-3.264-1.92-5.888-4.64-7.872-8.16-1.984-3.584-2.976-7.872-2.976-12.864zm25.152 13.248c3.712 0 6.816-1.184 9.312-3.552s3.744-5.696 3.744-9.984v-.96c0-4.352-1.248-7.68-3.744-9.984-2.432-2.368-5.536-3.552-9.312-3.552-3.712 0-6.816 1.184-9.312 3.552-2.496 2.304-3.744 5.632-3.744 9.984v.96c0 4.288 1.248 7.616 3.744 9.984s5.6 3.552 9.312 3.552z"/><path d="m770.725 183.5v-47.616h11.904v6.24h1.728c.768-1.664 2.208-3.232 4.32-4.704 2.112-1.536 5.312-2.304 9.6-2.304 3.712 0 6.944.864 9.696 2.592 2.816 1.664 4.992 4 6.528 7.008 1.536 2.944 2.304 6.4 2.304 10.368v28.416h-12.096v-27.456c0-3.584-.896-6.272-2.688-8.064-1.728-1.792-4.224-2.688-7.488-2.688-3.712 0-6.592 1.248-8.64 3.744-2.048 2.432-3.072 5.856-3.072 10.272v24.192z"/><path d="m528.335 270.5v-67.2h42.24v11.52h-29.568v16.224h27.264v11.52h-27.264v27.936z"/><path d="m599.401 271.844c-4.736 0-8.992-.96-12.768-2.88s-6.752-4.704-8.928-8.352-3.264-8.032-3.264-13.152v-1.536c0-5.12 1.088-9.504 3.264-13.152s5.152-6.432 8.928-8.352 8.032-2.88 12.768-2.88 8.992.96 12.768 2.88 6.752 4.704 8.928 8.352 3.264 8.032 3.264 13.152v1.536c0 5.12-1.088 9.504-3.264 13.152s-5.152 6.432-8.928 8.352-8.032 2.88-12.768 2.88zm0-10.752c3.712 0 6.784-1.184 9.216-3.552 2.432-2.432 3.648-5.888 3.648-10.368v-.96c0-4.48-1.216-7.904-3.648-10.272-2.368-2.432-5.44-3.648-9.216-3.648-3.712 0-6.784 1.216-9.216 3.648-2.432 2.368-3.648 5.792-3.648 10.272v.96c0 4.48 1.216 7.936 3.648 10.368 2.432 2.368 5.504 3.552 9.216 3.552z"/><path d="m650.79 271.268c-3.712 0-6.976-.832-9.792-2.496-2.752-1.728-4.895-4.096-6.431-7.104s-2.304-6.464-2.304-10.368v-28.416h12.096v27.456c0 3.584.864 6.272 2.592 8.064 1.791 1.792 4.319 2.688 7.583 2.688 3.712 0 6.593-1.216 8.64-3.648 2.048-2.496 3.072-5.952 3.072-10.368v-24.192h12.096v47.616h-11.904v-6.24h-1.728c-.768 1.6-2.207 3.168-4.319 4.704s-5.313 2.304-9.601 2.304z"/><path d="m688.923 270.5v-47.616h11.904v6.24h1.728c.768-1.664 2.208-3.232 4.32-4.704 2.112-1.536 5.312-2.304 9.6-2.304 3.712 0 6.944.864 9.696 2.592 2.816 1.664 4.992 4 6.528 7.008 1.536 2.944 2.304 6.4 2.304 10.368v28.416h-12.096v-27.456c0-3.584-.896-6.272-2.688-8.064-1.728-1.792-4.224-2.688-7.488-2.688-3.712 0-6.592 1.248-8.64 3.744-2.048 2.432-3.072 5.856-3.072 10.272v24.192z"/><path d="m764.399 271.844c-3.776 0-7.328-.928-10.656-2.784-3.264-1.92-5.888-4.704-7.872-8.352s-2.976-8.064-2.976-13.248v-1.536c0-5.184.992-9.6 2.976-13.248s4.608-6.4 7.872-8.256c3.264-1.92 6.816-2.88 10.656-2.88 2.88 0 5.28.352 7.2 1.056 1.984.64 3.584 1.472 4.8 2.496s2.144 2.112 2.784 3.264h1.728v-25.056h12.096v67.2h-11.904v-5.76h-1.728c-1.088 1.792-2.784 3.424-5.088 4.896-2.24 1.472-5.536 2.208-9.888 2.208zm3.648-10.56c3.712 0 6.816-1.184 9.312-3.552 2.496-2.432 3.744-5.952 3.744-10.56v-.96c0-4.608-1.248-8.096-3.744-10.464-2.432-2.432-5.536-3.648-9.312-3.648-3.712 0-6.816 1.216-9.312 3.648-2.496 2.368-3.744 5.856-3.744 10.464v.96c0 4.608 1.248 8.128 3.744 10.56 2.496 2.368 5.6 3.552 9.312 3.552z"/><path d="m818.322 271.844c-3.392 0-6.432-.576-9.12-1.728-2.688-1.216-4.832-2.944-6.432-5.184-1.536-2.304-2.304-5.088-2.304-8.352s.768-5.984 2.304-8.16c1.6-2.24 3.776-3.904 6.528-4.992 2.816-1.152 6.016-1.728 9.6-1.728h13.056v-2.688c0-2.24-.704-4.064-2.112-5.472-1.408-1.472-3.648-2.208-6.72-2.208-3.008 0-5.248.704-6.72 2.112-1.472 1.344-2.432 3.104-2.88 5.28l-11.136-3.744c.768-2.432 1.984-4.64 3.648-6.624 1.728-2.048 4-3.68 6.816-4.896 2.88-1.28 6.368-1.92 10.464-1.92 6.272 0 11.232 1.568 14.88 4.704s5.472 7.68 5.472 13.632v17.76c0 1.92.896 2.88 2.688 2.88h3.84v9.984h-8.064c-2.368 0-4.32-.576-5.856-1.728s-2.304-2.688-2.304-4.608v-.096h-1.824c-.256.768-.832 1.792-1.728 3.072-.896 1.216-2.304 2.304-4.224 3.264s-4.544 1.44-7.872 1.44zm2.112-9.792c3.392 0 6.144-.928 8.256-2.784 2.176-1.92 3.264-4.448 3.264-7.584v-.96h-12.192c-2.24 0-4 .48-5.28 1.44s-1.92 2.304-1.92 4.032.672 3.136 2.016 4.224 3.296 1.632 5.856 1.632z"/><path d="m870.929 270.5c-3.136 0-5.696-.96-7.68-2.88-1.92-1.984-2.88-4.608-2.88-7.872v-26.88h-11.904v-9.984h11.904v-14.784h12.096v14.784h13.056v9.984h-13.056v24.768c0 1.92.896 2.88 2.688 2.88h9.216v9.984z"/><path d="m893.59 270.5v-47.616h12.096v47.616zm6.048-53.184c-2.176 0-4.032-.704-5.568-2.112-1.472-1.408-2.208-3.264-2.208-5.568s.736-4.16 2.208-5.568c1.536-1.408 3.392-2.112 5.568-2.112 2.24 0 4.096.704 5.568 2.112s2.208 3.264 2.208 5.568-.736 4.16-2.208 5.568-3.328 2.112-5.568 2.112z"/><path d="m938.866 271.844c-4.736 0-8.992-.96-12.768-2.88s-6.752-4.704-8.928-8.352-3.264-8.032-3.264-13.152v-1.536c0-5.12 1.088-9.504 3.264-13.152s5.152-6.432 8.928-8.352 8.032-2.88 12.768-2.88 8.992.96 12.768 2.88 6.752 4.704 8.928 8.352 3.264 8.032 3.264 13.152v1.536c0 5.12-1.088 9.504-3.264 13.152s-5.152 6.432-8.928 8.352-8.032 2.88-12.768 2.88zm0-10.752c3.712 0 6.784-1.184 9.216-3.552 2.432-2.432 3.648-5.888 3.648-10.368v-.96c0-4.48-1.216-7.904-3.648-10.272-2.368-2.432-5.44-3.648-9.216-3.648-3.712 0-6.784 1.216-9.216 3.648-2.432 2.368-3.648 5.792-3.648 10.272v.96c0 4.48 1.216 7.936 3.648 10.368 2.432 2.368 5.504 3.552 9.216 3.552z"/><path d="m972.111 270.5v-47.616h11.904v6.24h1.728c.768-1.664 2.208-3.232 4.32-4.704 2.112-1.536 5.312-2.304 9.6-2.304 3.717 0 6.947.864 9.697 2.592 2.82 1.664 4.99 4 6.53 7.008 1.53 2.944 2.3 6.4 2.3 10.368v28.416h-12.09v-27.456c0-3.584-.9-6.272-2.69-8.064-1.73-1.792-4.227-2.688-7.491-2.688-3.712 0-6.592 1.248-8.64 3.744-2.048 2.432-3.072 5.856-3.072 10.272v24.192z"/></g></svg>