<svg width="800" height="239" viewBox="0 0 800 239" fill="none" xmlns="http://www.w3.org/2000/svg">
<path d="M373.192 33V12.5931H365.805V8.60685H385.59V12.5931H378.166V33H373.192ZM389.501 33V8.60685H394.475V18.8103H404.605V8.60685H409.543V33H404.605V22.9429H394.475V33H389.501ZM415.403 33V8.60685H431.75V12.5931H420.377V18.7737H430.251V22.7966H420.377V29.0137H431.75V33H415.403Z" fill="white"/>
<path d="M4.54167 58.5L4.5 57.6667V55.0833C4.5 51.5 4.56944 47.3889 4.70833 42.75L4.625 42.6667L6.875 42.5417C14.125 42.1528 18.8333 41.9583 21 41.9583H40.4167C47.0556 41.9583 52.5694 43.3333 56.9583 46.0833C58.5139 47.4167 59.7778 49.2083 60.75 51.4583C61.7222 53.7083 62.2083 56.25 62.2083 59.0833C62.2083 64.5556 58.5417 69.2083 51.2083 73.0417C55.3472 74.1806 58.5139 76.0139 60.7083 78.5417C62.9306 81.0417 64.0417 84.1111 64.0417 87.75C64.0417 94.1944 61.1528 99.0833 55.375 102.417C51.125 104.917 45.75 106.167 39.25 106.167L26.8333 106C21.4722 106 14.3611 106.125 5.5 106.375C4.72222 104.736 4.33333 98.25 4.33333 86.9167C4.33333 75.5833 4.40278 66.1111 4.54167 58.5ZM30.4583 93.375C37.6528 93.375 41.25 90.8611 41.25 85.8333C41.25 82.6389 40.2778 80.5 38.3333 79.4167C36.5833 78.4722 33.9028 77.9444 30.2917 77.8333H29.0833L28.3333 80.1667C28.1389 83.0278 28.0417 85.8472 28.0417 88.625C28.0417 91.375 28.3333 92.9583 28.9167 93.375H30.4583ZM39.4167 65.5C39.9722 64.4444 40.25 63.1667 40.25 61.6667C40.25 58.75 39.2083 56.7917 37.125 55.7917C35.0417 54.7917 32.8611 54.2917 30.5833 54.2917C28.3056 54.2917 27.1667 55.125 27.1667 56.7917C27.1667 59.7639 27.2361 62.8056 27.375 65.9167L27.4583 68.125C27.5139 69.1806 28.125 69.8056 29.2917 70L31.3333 69.75C35.5556 69.25 38.25 67.8333 39.4167 65.5ZM70.645 100.542C70.645 94.9028 70.7978 90.9861 71.1033 88.7917C71.1033 76.7083 71.27 64.5278 71.6033 52.25C71.52 50.5 71.4783 48.7361 71.4783 46.9583V45.5833C71.3672 44.7222 71.3117 43.9583 71.3117 43.2917C71.3117 42.625 71.3811 42.1944 71.52 42C77.4644 42.3611 82.6728 42.5417 87.145 42.5417C91.6172 42.5417 94.6867 42.4583 96.3533 42.2917C96.4089 42.375 96.4506 42.6111 96.4783 43H96.1867V58.0833L96.4783 92C96.4783 92.25 96.52 92.4583 96.6033 92.625V92.7083C96.6867 92.875 96.7283 93.0556 96.7283 93.25L97.0617 105.375C96.9228 105.681 96.6728 105.917 96.3117 106.083H94.895L71.5617 106.458C71.2839 106.319 70.9228 106.111 70.4783 105.833L70.52 105.125L70.645 100.542ZM157.998 57.7083C157.998 58.625 157.901 59.0833 157.707 59.0833C157.707 59.0833 152.679 59.0417 142.623 58.9583C142.568 61.6528 142.54 65.8611 142.54 71.5833C142.54 77.3056 142.554 81.2778 142.582 83.5L142.748 105.583C142.609 105.972 142.332 106.181 141.915 106.208L133.123 106.083L133.082 106.125L130.332 106.083H122.707C120.651 106.083 119.109 106.097 118.082 106.125L117.373 105.5C117.346 105.472 117.165 105.25 116.832 104.833C116.832 102.389 116.929 96.9583 117.123 88.5417L117.582 66.375L117.498 65.3333C117.304 62.5833 117.109 60.9583 116.915 60.4583C116.748 59.9306 116.401 59.6528 115.873 59.625C115.346 59.5694 114.957 59.5417 114.707 59.5417L113.04 59.625L102.707 59.4583C102.346 58.7361 102.165 57.1111 102.165 54.5833L102.248 50.9167V49.7917C102.221 45.3472 102.179 42.9722 102.123 42.6667C102.179 42.6667 102.29 42.6944 102.457 42.75L155.498 42.2917C156.582 42.2917 157.262 42.375 157.54 42.5417C157.818 42.6806 157.957 42.9583 157.957 43.375V54.375L157.998 57.7083ZM160.102 71.7917C160.768 65.4583 161.879 60.6944 163.435 57.5C166.407 51.3333 170.838 46.9583 176.727 44.375C181.977 42.0694 187.685 40.9167 193.852 40.9167C204.185 40.9167 211.727 43.75 216.477 49.4167C219.338 52.7778 220.991 56.9583 221.435 61.9583L221.81 65.875C221.338 66.3194 218.352 66.5417 212.852 66.5417L206.227 66.4583H205.685L202.06 66.375L201.06 66.4167H200.227C199.449 66.4167 198.852 65.2778 198.435 63C198.046 60.7222 197.435 59.2222 196.602 58.5C195.796 57.75 194.852 57.375 193.768 57.375C192.685 57.375 191.727 57.5694 190.893 57.9583C190.088 58.3472 189.421 58.8194 188.893 59.375C188.366 59.9028 187.921 60.6667 187.56 61.6667C186.893 63.3889 186.491 65.2222 186.352 67.1667C186.213 69.0833 186.143 71.2361 186.143 73.625V74.625L185.977 78.8333C185.977 86.5 188.143 90.4167 192.477 90.5833C193.588 90.5833 194.366 90.3889 194.81 90C196.004 88.9444 197.046 86.8194 197.935 83.625C198.129 82.9583 198.366 82.4167 198.643 82H200.227L202.143 82.0417H208.893L210.935 82L214.893 82.0417H217.31L219.768 82.0833H221.435C221.768 82.1111 222.004 82.4028 222.143 82.9583L222.018 84.3333C221.768 87.6111 221.004 90.5833 219.727 93.25C217.366 98.1389 213.643 101.778 208.56 104.167C203.504 106.528 197.949 107.708 191.893 107.708C181.31 107.708 173.366 104.583 168.06 98.3333C162.754 92.0833 160.102 83.2361 160.102 71.7917ZM249.163 73.3333C249.163 73.3611 249.149 73.4306 249.122 73.5417V73.6667C249.011 74.8333 248.955 76.1389 248.955 77.5833C248.955 79.0278 249.066 80.5556 249.288 82.1667C249.538 83.7778 249.927 85.3889 250.455 87C251.011 88.6111 251.858 89.9167 252.997 90.9167C254.219 91.9722 255.58 92.5 257.08 92.5C258.608 92.5 259.886 92.2917 260.913 91.875C261.969 91.4306 262.844 90.875 263.538 90.2083C264.261 89.5417 264.886 88.6389 265.413 87.5C266.747 84.4722 267.413 79.7778 267.413 73.4167C267.413 66.9444 266.663 62.4167 265.163 59.8333C263.691 57.2222 261.455 55.9167 258.455 55.9167C256.955 55.9167 255.636 56.2778 254.497 57C253.386 57.7222 252.538 58.4722 251.955 59.25C251.399 60.0278 250.816 61.6806 250.205 64.2083C249.622 66.7361 249.33 69.0694 249.33 71.2083L249.163 73.3333ZM225.205 73.6667L225.288 72.75C225.622 69.2778 226.066 66.2083 226.622 63.5417C227.177 60.8472 228.08 58.3333 229.33 56C232.302 50.8611 236.441 46.9722 241.747 44.3333C247.08 41.6667 252.816 40.3333 258.955 40.3333C265.122 40.3333 270.719 41.5694 275.747 44.0417C278.747 45.5139 281.094 47.375 282.788 49.625C286.038 53.6806 288.177 57.4167 289.205 60.8333C290.233 64.25 290.747 68.1944 290.747 72.6667C290.747 82.6111 288.691 90.1944 284.58 95.4167L282.663 97.9583C280.08 100.958 276.427 103.278 271.705 104.917C266.983 106.528 262.302 107.361 257.663 107.417C249.719 107.417 243.205 105.75 238.122 102.417C229.511 96.8333 225.205 87.25 225.205 73.6667ZM297.475 100.542C297.475 94.9028 297.628 90.9861 297.933 88.7917C297.933 76.7083 298.1 64.5278 298.433 52.25C298.35 50.5 298.308 48.7361 298.308 46.9583V45.5833C298.197 44.7222 298.142 43.9583 298.142 43.2917C298.142 42.625 298.211 42.1944 298.35 42C304.294 42.3611 309.503 42.5417 313.975 42.5417C318.447 42.5417 321.517 42.4583 323.183 42.2917C323.239 42.375 323.281 42.6111 323.308 43H323.017V58.0833L323.308 92C323.308 92.25 323.35 92.4583 323.433 92.625V92.7083C323.517 92.875 323.558 93.0556 323.558 93.25L323.892 105.375C323.753 105.681 323.503 105.917 323.142 106.083H321.725L298.392 106.458C298.114 106.319 297.753 106.111 297.308 105.833L297.35 105.125L297.475 100.542ZM396.912 75.8333L396.87 78.625V94.0417L396.953 101.375V103.458L396.995 105.417C396.828 105.639 396.148 105.75 394.953 105.75H393.87L380.787 105.917C375.231 105.917 371.092 105.903 368.37 105.875C367.953 105.431 366.439 101.389 363.828 93.75L355.87 72.625L354.37 72.8333L354.328 77.0833V88.375L354.495 99.6667V104.333C354.495 105.583 354.217 106.236 353.662 106.292C350.912 106.208 348.287 106.167 345.787 106.167H344.495L338.203 106.333H337.37L334.37 106.417L334.245 106.333C333.328 105.472 332.87 104.847 332.87 104.458V103.708L332.912 102.875L333.12 86.625C333.12 68.7917 333.287 55.3056 333.62 46.1667L333.703 42.7083C333.703 42.4583 343.273 42.2361 362.412 42.0417C362.578 42.1528 362.828 42.7639 363.162 43.875V43.75L363.412 44.5833C365.467 50.4722 367.967 57.2361 370.912 64.875C373.856 72.4861 375.356 76.375 375.412 76.5417L376.828 76.4583L376.995 42.5C376.995 42.2778 379.023 42.1667 383.078 42.1667L393.537 42.375H396.62C396.814 51.5694 396.912 62.7222 396.912 75.8333ZM454.077 42L461.868 41.875C475.452 41.875 484.993 44.125 490.493 48.625C491.66 49.4861 492.938 50.9306 494.327 52.9583C498.354 58.8194 500.368 65.2917 500.368 72.375C500.368 85.0139 496.021 94.3611 487.327 100.417C482.132 104.056 476.16 105.903 469.41 105.958L469.243 106.125H468.202L457.118 106C452.091 106 445.799 106.125 438.243 106.375C437.716 105.375 437.452 104.194 437.452 102.833L437.493 101.333V94.8333L437.577 85.5833V70.3333C437.521 66.8333 437.493 64.2222 437.493 62.5V55.6667L437.535 54.7083V42.7917C437.535 42.5694 439.049 42.3889 442.077 42.25C445.104 42.0833 447.521 42 449.327 42H454.077ZM471.743 56.4167C470.16 55.2778 468.41 54.6389 466.493 54.5C465.827 54.4722 464.91 54.4444 463.743 54.4167C462.604 54.3889 461.771 54.3611 461.243 54.3333C460.743 55.0833 460.41 55.6389 460.243 56L459.493 57.5417V59.875C459.493 64.6806 459.604 71.1944 459.827 79.4167L460.077 91.4583C460.243 92.3194 460.799 92.8333 461.743 93C464.604 92.9444 466.813 92.75 468.368 92.4167C473.841 90.4722 476.577 83.8194 476.577 72.4583C476.577 64.0417 474.966 58.6944 471.743 56.4167ZM506.93 53.4167L506.722 42.4583C506.749 42.4583 506.847 42.5 507.013 42.5833C528.124 42.2222 544.027 42.0278 554.722 42C554.833 42.0556 554.916 42.1389 554.972 42.25V54C554.972 55.1389 554.944 56.0694 554.888 56.7917C554.749 57.2361 553.93 57.4583 552.43 57.4583H552.138C545.416 57.4583 538.416 57.3472 531.138 57.125C531.138 57.375 531.097 57.8194 531.013 58.4583C530.958 59.0972 530.916 59.5556 530.888 59.8333L530.68 61.4167C530.541 62.4722 530.444 64.3056 530.388 66.9167L543.305 66.625C545.527 66.5694 547.138 66.5417 548.138 66.5417H548.805C550.499 66.5417 551.611 66.5972 552.138 66.7083C552.666 66.7917 552.93 67.0694 552.93 67.5417L552.888 67.875V68.875L553.097 79.5833L553.055 79.625V79.5833C544.611 80 537.861 80.2083 532.805 80.2083H530.847V90.2917L553.472 89.5833C554.722 89.5833 555.513 89.7639 555.847 90.125C555.819 90.8472 555.805 91.875 555.805 93.2083L556.097 104.542C556.097 105.236 555.791 105.639 555.18 105.75L541.347 105.625C538.624 105.625 533.208 105.722 525.097 105.917L518.263 106.083C513.43 106.25 509.847 106.333 507.513 106.333L507.388 106.25H507.43C507.152 105.972 506.888 105.708 506.638 105.458V104L506.888 59.4583L506.93 53.4167ZM560.033 87.7917L582.075 87.4167C582.631 87.4167 583.089 87.8889 583.45 88.8333C583.839 89.7778 584.214 90.5278 584.575 91.0833C585.436 92.4167 586.853 93.0833 588.825 93.0833C590.825 93.0833 592.436 92.625 593.658 91.7083C594.881 90.7639 595.492 89.5556 595.492 88.0833C595.492 86.6111 595.117 85.6111 594.367 85.0833C593.617 84.5278 592.797 84 591.908 83.5C591.019 82.9722 589.7 82.5694 587.95 82.2917C586.228 82.0139 585.283 81.8472 585.117 81.7917H585.2L582.825 81.1667C581.297 80.8889 580.019 80.5833 578.992 80.25C572.353 78.4722 567.547 76.2361 564.575 73.5417C561.631 70.8472 560.158 67.2222 560.158 62.6667C560.158 59.3611 560.769 56.3889 561.992 53.75C563.214 51.1111 564.811 48.9583 566.783 47.2917C572.478 42.4861 580.339 40.0833 590.367 40.0833C598.339 40.0833 604.603 41.5278 609.158 44.4167H609.117C612.033 46.5278 614.033 48.6111 615.117 50.6667C616.2 52.6944 616.881 55.2083 617.158 58.2083L616.075 59.2917C608.769 59.5694 602.297 59.7083 596.658 59.7083C594.964 59.7083 593.95 59.2083 593.617 58.2083C593.478 57.7917 593.325 57.375 593.158 56.9583C592.769 55.9583 591.519 55.4583 589.408 55.4583H589.242C587.603 55.4583 586.2 55.8472 585.033 56.625C583.867 57.375 583.269 58.1111 583.242 58.8333C583.242 59.5556 583.394 60.1528 583.7 60.625C584.033 61.0972 584.381 61.4722 584.742 61.75C585.103 62.0278 585.658 62.3194 586.408 62.625C587.158 62.9028 587.714 63.0972 588.075 63.2083C588.464 63.2917 589.061 63.4444 589.867 63.6667L591.325 64.0417C591.908 64.2083 593.603 64.625 596.408 65.2917C599.242 65.9583 601.603 66.5972 603.492 67.2083V67.1667C609.408 69.1667 613.436 71.6667 615.575 74.6667C617.742 77.6389 618.825 81.1111 618.825 85.0833C618.825 95.6667 612.506 102.528 599.867 105.667C596.2 106.583 592.283 107.236 588.117 107.625C583.006 107.625 577.95 106.875 572.95 105.375C567.95 103.875 564.603 101.431 562.908 98.0417C561.769 96.4028 561.006 94.9028 560.617 93.5417C560.228 92.1528 559.908 90.2222 559.658 87.75C559.742 87.7778 559.867 87.7917 560.033 87.7917ZM624.428 100.542C624.428 94.9028 624.581 90.9861 624.887 88.7917C624.887 76.7083 625.053 64.5278 625.387 52.25C625.303 50.5 625.262 48.7361 625.262 46.9583V45.5833C625.151 44.7222 625.095 43.9583 625.095 43.2917C625.095 42.625 625.164 42.1944 625.303 42C631.248 42.3611 636.456 42.5417 640.928 42.5417C645.401 42.5417 648.47 42.4583 650.137 42.2917C650.192 42.375 650.234 42.6111 650.262 43H649.97V58.0833L650.262 92C650.262 92.25 650.303 92.4583 650.387 92.625V92.7083C650.47 92.875 650.512 93.0556 650.512 93.25L650.845 105.375C650.706 105.681 650.456 105.917 650.095 106.083H648.678L625.345 106.458C625.067 106.319 624.706 106.111 624.262 105.833L624.303 105.125L624.428 100.542ZM723.282 102.583C723.282 102.611 723.296 102.667 723.323 102.75L723.198 103.083H723.24V103.167C723.24 103.222 723.226 103.264 723.198 103.292C721.893 104.292 718.698 105.208 713.615 106.042C708.559 106.875 705.073 107.292 703.157 107.292C701.268 107.292 700.212 107.278 699.99 107.25L697.865 107.375C695.643 107.514 694.365 107.583 694.032 107.583C682.365 107.583 673.476 104.653 667.365 98.7917C661.282 92.9306 658.24 84.6111 658.24 73.8333C658.24 63.0278 661.518 54.8333 668.073 49.25C674.657 43.6667 683.559 40.875 694.782 40.875C696.837 40.875 699.365 41.0694 702.365 41.4583C705.393 41.8472 708.046 42.4167 710.323 43.1667C713.101 44.3056 715.476 45.9583 717.448 48.125C719.448 50.2639 720.754 52.6389 721.365 55.25C721.476 55.9722 721.601 57.1111 721.74 58.6667C721.907 60.1944 722.046 61.3194 722.157 62.0417C721.99 62.4583 721.393 62.6667 720.365 62.6667L699.198 62.2917C699.087 62.2361 698.948 61.8611 698.782 61.1667V61.2917C698.282 59.0417 697.296 57.6667 695.823 57.1667C695.157 56.9167 694.282 56.7917 693.198 56.7917C692.115 56.7917 691.087 56.9722 690.115 57.3333C689.171 57.6944 688.379 58.1944 687.74 58.8333C687.101 59.4722 686.532 60.2222 686.032 61.0833C685.532 61.9167 685.157 62.8194 684.907 63.7917C684.657 64.7639 684.434 65.7639 684.24 66.7917C684.046 67.8194 683.921 68.8333 683.865 69.8333C683.837 70.8333 683.796 71.7917 683.74 72.7083C683.712 73.625 683.712 74.3889 683.74 75C683.768 75.5833 683.782 75.9722 683.782 76.1667V79.0417C683.782 80.8472 683.865 82.1111 684.032 82.8333C684.198 83.5278 684.393 84.3056 684.615 85.1667C684.837 86 685.101 86.6389 685.407 87.0833C686.49 88.6111 687.657 89.6806 688.907 90.2917C690.184 90.875 692.157 91.1667 694.823 91.1667C697.518 91.1667 700.073 90.7639 702.49 89.9583L702.698 83.375L699.698 83.125L699.282 83.3333H694.948L694.448 83.375L693.407 82.2917C693.351 81.8194 693.323 81.0694 693.323 80.0417V70.7083C693.323 70.2361 693.657 69.7639 694.323 69.2917H697.115C699.532 69.2917 702.24 69.3194 705.24 69.375H705.657C708.379 69.4306 710.448 69.4583 711.865 69.4583H714.365L715.323 69.4167C720.268 69.4167 723.087 69.7361 723.782 70.375L723.282 102V102.583ZM794.802 75.8333L794.76 78.625V94.0417L794.843 101.375V103.458L794.885 105.417C794.718 105.639 794.038 105.75 792.843 105.75H791.76L778.677 105.917C773.121 105.917 768.982 105.903 766.26 105.875C765.843 105.431 764.329 101.389 761.718 93.75L753.76 72.625L752.26 72.8333L752.218 77.0833V88.375L752.385 99.6667V104.333C752.385 105.583 752.107 106.236 751.552 106.292C748.802 106.208 746.177 106.167 743.677 106.167H742.385L736.093 106.333H735.26L732.26 106.417L732.135 106.333C731.218 105.472 730.76 104.847 730.76 104.458V103.708L730.802 102.875L731.01 86.625C731.01 68.7917 731.177 55.3056 731.51 46.1667L731.593 42.7083C731.593 42.4583 741.163 42.2361 760.302 42.0417C760.468 42.1528 760.718 42.7639 761.052 43.875V43.75L761.302 44.5833C763.357 50.4722 765.857 57.2361 768.802 64.875C771.746 72.4861 773.246 76.375 773.302 76.5417L774.718 76.4583L774.885 42.5C774.885 42.2778 776.913 42.1667 780.968 42.1667L791.427 42.375H794.51C794.704 51.5694 794.802 62.7222 794.802 75.8333Z" fill="white"/>
<path d="M68.0357 121.625L67.9821 126.607C67.9821 131.5 67.9107 135.857 67.7679 139.679C63.5893 140.036 57.875 140.214 50.625 140.214L38.25 140.268V141.821L38.1429 146.536C38.1429 147.786 38.1964 149 38.3036 150.179C47.2321 149.429 53.8393 149.054 58.125 149.054C62.4464 149.054 65.0893 149.375 66.0536 150.018V167.964C66.0536 169.143 65.8214 169.929 65.3571 170.321C64.8929 170.714 64.1786 170.911 63.2143 170.911H62.5179L59.625 170.804C53.2321 171.161 46.1429 171.429 38.3571 171.607L38.7321 192.929L38.6786 194.75V199.786C38.6786 200.857 38.3571 201.429 37.7143 201.5L7.07143 201.768C7 201.554 6.73214 201.071 6.26786 200.321C6.125 197.964 6.05357 195.964 6.05357 194.321L6.375 119.804C6.375 119.339 8.80357 119.107 13.6607 119.107L15 119.161H18.6429L44.5179 118.893L62.8929 119.107H64.7143L65.5179 119.054C66.5179 119.054 67.1786 119.286 67.5 119.75C67.8571 120.179 68.0357 120.804 68.0357 121.625ZM100.5 159.286C100.5 159.321 100.482 159.411 100.446 159.554V159.714C100.304 161.214 100.232 162.893 100.232 164.75C100.232 166.607 100.375 168.571 100.661 170.643C100.982 172.714 101.482 174.786 102.161 176.857C102.875 178.929 103.964 180.607 105.429 181.893C107 183.25 108.75 183.929 110.679 183.929C112.643 183.929 114.286 183.661 115.607 183.125C116.964 182.554 118.089 181.839 118.982 180.982C119.911 180.125 120.714 178.964 121.393 177.5C123.107 173.607 123.964 167.571 123.964 159.393C123.964 151.071 123 145.25 121.071 141.929C119.179 138.571 116.304 136.893 112.446 136.893C110.518 136.893 108.821 137.357 107.357 138.286C105.929 139.214 104.839 140.179 104.089 141.179C103.375 142.179 102.625 144.304 101.839 147.554C101.089 150.804 100.714 153.804 100.714 156.554L100.5 159.286ZM69.6964 159.714L69.8036 158.536C70.2321 154.071 70.8036 150.125 71.5179 146.696C72.2321 143.232 73.3929 140 75 137C78.8214 130.393 84.1429 125.393 90.9643 122C97.8214 118.571 105.196 116.857 113.089 116.857C121.018 116.857 128.214 118.446 134.679 121.625C138.536 123.518 141.554 125.911 143.732 128.804C147.911 134.018 150.661 138.821 151.982 143.214C153.304 147.607 153.964 152.679 153.964 158.429C153.964 171.214 151.321 180.964 146.036 187.679L143.571 190.946C140.25 194.804 135.554 197.786 129.482 199.893C123.411 201.964 117.393 203.036 111.429 203.107C101.214 203.107 92.8393 200.964 86.3036 196.679C75.2321 189.5 69.6964 177.179 69.6964 159.714ZM238.821 158.482L238.661 173.536C238.661 178.143 237.911 182.214 236.411 185.75C234.946 189.286 233 192.143 230.571 194.321C223.964 200.321 214.196 203.321 201.268 203.321C188.339 203.321 178.286 200.179 171.107 193.893C168.571 191.714 166.429 188.893 164.679 185.429C162.964 181.929 161.929 177.982 161.571 173.589C161.75 158.661 161.839 144.857 161.839 132.179C161.661 132.179 161.571 130.304 161.571 126.554C161.571 122.804 161.732 120.482 162.054 119.589H163.179C168.429 119.304 175.589 119.161 184.661 119.161C185.304 119.304 186.464 119.393 188.143 119.429C189.857 119.464 191.036 119.518 191.679 119.589L193.339 119.804C193.589 126.875 193.75 136.607 193.821 149L193.5 170.536C193.5 177.679 195.571 181.25 199.714 181.25C201.464 181.25 202.929 180.482 204.107 178.946C205.321 177.411 205.964 175.679 206.036 173.75L206.25 173.214L206.411 155.161L206.464 153.554C206.464 145.268 206.357 137.268 206.143 129.554L206.036 125.643C205.964 124.071 205.929 122.661 205.929 121.411C205.929 120.161 206.125 119.304 206.518 118.839C220.304 118.839 230.696 118.893 237.696 119C237.946 119.25 238.268 119.482 238.661 119.696H238.607L239.196 120.071C238.911 126.821 238.768 135.5 238.768 146.107V155.321L238.821 158.482ZM329.732 162.5L329.679 166.089V185.911L329.786 195.339V198.018L329.839 200.536C329.625 200.821 328.75 200.964 327.214 200.964H325.821L309 201.179C301.857 201.179 296.536 201.161 293.036 201.125C292.5 200.554 290.554 195.357 287.196 185.536L276.964 158.375L275.036 158.643L274.982 164.107V178.625L275.196 193.143V199.143C275.196 200.75 274.839 201.589 274.125 201.661C270.589 201.554 267.214 201.5 264 201.5H262.339L254.25 201.714H253.179L249.321 201.821L249.161 201.714C247.982 200.607 247.393 199.804 247.393 199.304V198.339L247.446 197.268L247.714 176.375C247.714 153.446 247.929 136.107 248.357 124.357L248.464 119.911C248.464 119.589 260.768 119.304 285.375 119.054C285.589 119.196 285.911 119.982 286.339 121.411V121.25L286.661 122.321C289.304 129.893 292.518 138.589 296.304 148.411C300.089 158.196 302.018 163.196 302.089 163.411L303.911 163.304L304.125 119.643C304.125 119.357 306.732 119.214 311.946 119.214L325.393 119.482H329.357C329.607 131.304 329.732 145.643 329.732 162.5ZM362.679 119L372.696 118.839C390.161 118.839 402.429 121.732 409.5 127.518C411 128.625 412.643 130.482 414.429 133.089C419.607 140.625 422.196 148.946 422.196 158.054C422.196 174.304 416.607 186.321 405.429 194.107C398.75 198.786 391.071 201.161 382.393 201.232L382.179 201.446H380.839L366.589 201.286C360.125 201.286 352.036 201.446 342.321 201.768C341.643 200.482 341.304 198.964 341.304 197.214L341.357 195.286V186.929L341.464 175.036V155.429C341.393 150.929 341.357 147.571 341.357 145.357V136.571L341.411 135.339V120.018C341.411 119.732 343.357 119.5 347.25 119.321C351.143 119.107 354.25 119 356.571 119H362.679ZM385.393 137.536C383.357 136.071 381.107 135.25 378.643 135.071C377.786 135.036 376.607 135 375.107 134.964C373.643 134.929 372.571 134.893 371.893 134.857C371.25 135.821 370.821 136.536 370.607 137L369.643 138.982V141.982C369.643 148.161 369.786 156.536 370.071 167.107L370.393 182.589C370.607 183.696 371.321 184.357 372.536 184.571C376.214 184.5 379.054 184.25 381.054 183.821C388.089 181.321 391.607 172.768 391.607 158.161C391.607 147.339 389.536 140.464 385.393 137.536ZM512.304 200.589C512.268 201.054 511.286 201.286 509.357 201.286H504.429L501.107 201.339H497.839L492.643 201.393C487.464 201.393 483.161 201.268 479.732 201.018C479.625 200.982 479.5 200.768 479.357 200.375L479.089 199.25C478.768 195.571 477.929 192.018 476.571 188.589L453.643 188.804C453.5 189.411 453.036 191.214 452.25 194.214C451.464 197.214 450.875 199.482 450.482 201.018C450.125 201.375 448.429 201.554 445.393 201.554L444.054 201.5H440.946L427.018 201.821H425.411L423.911 201.875H420.161C419.911 201.625 419.643 201.304 419.357 200.911C422.929 188.554 427.768 173.232 433.875 154.946L435.107 151.143H435.054L436.5 146.696C436.964 145.268 438.286 141.304 440.464 134.804C442.679 128.304 444.054 124.107 444.589 122.214C445.161 120.321 445.5 119.339 445.607 119.268H454.5L473.518 119L478.661 119.268L482.893 119C485.036 119 486.107 119.429 486.107 120.286C489.679 130.25 494.446 144.589 500.411 163.304C506.375 182.018 509.732 192.536 510.482 194.857L511.232 197.536C511.482 198.5 511.839 199.518 512.304 200.589ZM459.268 171.339L461.464 171.393L474.268 171.339C473.732 167.089 473.321 163.964 473.036 161.964L471 152.804C468.857 143.339 467.75 138.518 467.679 138.339C467.607 138.161 467.536 138 467.464 137.857C467.429 137.679 467.393 137.571 467.357 137.536C467.321 137.464 467.268 137.357 467.196 137.214C467.161 137.071 467.107 136.982 467.036 136.946C467 136.875 466.946 136.786 466.875 136.679C466.625 136.25 466.107 135.875 465.321 135.554C464.357 135.768 461.482 146.518 456.696 167.804L456.107 171.339H459.268ZM574.768 139.196C574.768 140.375 574.643 140.964 574.393 140.964C574.393 140.964 567.929 140.911 555 140.804C554.929 144.268 554.893 149.679 554.893 157.036C554.893 164.393 554.911 169.5 554.946 172.357L555.161 200.75C554.982 201.25 554.625 201.518 554.089 201.554L542.786 201.393L542.732 201.446L539.196 201.393H529.393C526.75 201.393 524.768 201.411 523.446 201.446L522.536 200.643C522.5 200.607 522.268 200.321 521.839 199.786C521.839 196.643 521.964 189.661 522.214 178.839L522.804 150.339L522.696 149C522.446 145.464 522.196 143.375 521.946 142.732C521.732 142.054 521.286 141.696 520.607 141.661C519.929 141.589 519.429 141.554 519.107 141.554L516.964 141.661L503.679 141.446C503.214 140.518 502.982 138.429 502.982 135.179L503.089 130.464V129.018C503.054 123.304 503 120.25 502.929 119.857C503 119.857 503.143 119.893 503.357 119.964L571.554 119.375C572.946 119.375 573.821 119.482 574.179 119.696C574.536 119.875 574.714 120.232 574.714 120.768V134.911L574.768 139.196ZM579.268 194.268C579.268 187.018 579.464 181.982 579.857 179.161C579.857 163.625 580.071 147.964 580.5 132.179C580.393 129.929 580.339 127.661 580.339 125.375V123.607C580.196 122.5 580.125 121.518 580.125 120.661C580.125 119.804 580.214 119.25 580.393 119C588.036 119.464 594.732 119.696 600.482 119.696C606.232 119.696 610.179 119.589 612.321 119.375C612.393 119.482 612.446 119.786 612.482 120.286H612.107V139.679L612.482 183.286C612.482 183.607 612.536 183.875 612.643 184.089V184.196C612.75 184.411 612.804 184.643 612.804 184.893L613.232 200.482C613.054 200.875 612.732 201.179 612.268 201.393H610.446L580.446 201.875C580.089 201.696 579.625 201.429 579.054 201.071L579.107 200.161L579.268 194.268ZM651.536 159.286C651.536 159.321 651.518 159.411 651.482 159.554V159.714C651.339 161.214 651.268 162.893 651.268 164.75C651.268 166.607 651.411 168.571 651.696 170.643C652.018 172.714 652.518 174.786 653.196 176.857C653.911 178.929 655 180.607 656.464 181.893C658.036 183.25 659.786 183.929 661.714 183.929C663.679 183.929 665.321 183.661 666.643 183.125C668 182.554 669.125 181.839 670.018 180.982C670.946 180.125 671.75 178.964 672.429 177.5C674.143 173.607 675 167.571 675 159.393C675 151.071 674.036 145.25 672.107 141.929C670.214 138.571 667.339 136.893 663.482 136.893C661.554 136.893 659.857 137.357 658.393 138.286C656.964 139.214 655.875 140.179 655.125 141.179C654.411 142.179 653.661 144.304 652.875 147.554C652.125 150.804 651.75 153.804 651.75 156.554L651.536 159.286ZM620.732 159.714L620.839 158.536C621.268 154.071 621.839 150.125 622.554 146.696C623.268 143.232 624.429 140 626.036 137C629.857 130.393 635.179 125.393 642 122C648.857 118.571 656.232 116.857 664.125 116.857C672.054 116.857 679.25 118.446 685.714 121.625C689.571 123.518 692.589 125.911 694.768 128.804C698.946 134.018 701.696 138.821 703.018 143.214C704.339 147.607 705 152.679 705 158.429C705 171.214 702.357 180.964 697.071 187.679L694.607 190.946C691.286 194.804 686.589 197.786 680.518 199.893C674.446 201.964 668.429 203.036 662.464 203.107C652.25 203.107 643.875 200.964 637.339 196.679C626.268 189.5 620.732 177.179 620.732 159.714ZM794.196 162.5L794.143 166.089V185.911L794.25 195.339V198.018L794.304 200.536C794.089 200.821 793.214 200.964 791.679 200.964H790.286L773.464 201.179C766.321 201.179 761 201.161 757.5 201.125C756.964 200.554 755.018 195.357 751.661 185.536L741.429 158.375L739.5 158.643L739.446 164.107V178.625L739.661 193.143V199.143C739.661 200.75 739.304 201.589 738.589 201.661C735.054 201.554 731.679 201.5 728.464 201.5H726.804L718.714 201.714H717.643L713.786 201.821L713.625 201.714C712.446 200.607 711.857 199.804 711.857 199.304V198.339L711.911 197.268L712.179 176.375C712.179 153.446 712.393 136.107 712.821 124.357L712.929 119.911C712.929 119.589 725.232 119.304 749.839 119.054C750.054 119.196 750.375 119.982 750.804 121.411V121.25L751.125 122.321C753.768 129.893 756.982 138.589 760.768 148.411C764.554 158.196 766.482 163.196 766.554 163.411L768.375 163.304L768.589 119.643C768.589 119.357 771.196 119.214 776.411 119.214L789.857 119.482H793.821C794.071 131.304 794.196 145.643 794.196 162.5Z" fill="white"/>
<path d="M319.243 238V213.607H335.59V217.593H324.217V223.774H334.091V227.797H324.217V234.014H335.59V238H319.243ZM348.971 238.439C347.727 238.439 346.618 238.378 345.643 238.256C344.692 238.134 343.814 237.939 343.009 237.671C342.229 237.403 341.437 237.061 340.632 236.647V231.856C341.656 232.685 342.851 233.343 344.216 233.831C345.606 234.294 347.02 234.526 348.459 234.526C349.775 234.526 350.763 234.27 351.421 233.758C352.104 233.221 352.445 232.453 352.445 231.454C352.445 230.698 352.164 230.088 351.604 229.625C351.067 229.162 350.348 228.76 349.446 228.418C348.544 228.077 347.556 227.723 346.484 227.358C345.728 227.09 344.984 226.797 344.253 226.48C343.546 226.139 342.9 225.712 342.315 225.2C341.754 224.688 341.303 224.054 340.961 223.298C340.62 222.518 340.449 221.567 340.449 220.446C340.449 219.544 340.62 218.654 340.961 217.776C341.303 216.898 341.827 216.118 342.534 215.435C343.241 214.728 344.155 214.168 345.277 213.753C346.398 213.339 347.739 213.131 349.3 213.131C350.275 213.131 351.128 213.192 351.86 213.314C352.616 213.436 353.335 213.619 354.017 213.863C354.7 214.107 355.407 214.411 356.139 214.777V219.568C355.553 219.154 354.932 218.763 354.273 218.398C353.615 218.008 352.908 217.691 352.152 217.447C351.421 217.203 350.628 217.069 349.775 217.045C348.897 217.02 348.142 217.118 347.508 217.337C346.874 217.557 346.386 217.886 346.045 218.325C345.704 218.763 345.533 219.288 345.533 219.897C345.533 220.653 345.74 221.262 346.155 221.726C346.569 222.165 347.154 222.53 347.91 222.823C348.666 223.115 349.531 223.42 350.507 223.737C351.457 224.03 352.347 224.359 353.176 224.725C354.03 225.066 354.773 225.505 355.407 226.041C356.065 226.578 356.577 227.236 356.943 228.016C357.333 228.796 357.528 229.747 357.528 230.869C357.528 232.234 357.211 233.49 356.577 234.635C355.944 235.781 354.993 236.708 353.725 237.415C352.481 238.098 350.897 238.439 348.971 238.439ZM367.816 238V217.593H360.429V213.607H380.214V217.593H372.79V238H367.816ZM394.632 238V234.379C395.461 233.843 396.375 233.197 397.375 232.441C398.399 231.661 399.398 230.808 400.373 229.881C401.373 228.93 402.275 227.955 403.08 226.955C403.909 225.931 404.567 224.92 405.055 223.92C405.567 222.92 405.823 221.97 405.823 221.067C405.823 220.263 405.652 219.58 405.311 219.019C404.969 218.434 404.445 217.983 403.738 217.666C403.055 217.349 402.202 217.191 401.178 217.191C399.91 217.191 398.764 217.447 397.74 217.959C396.716 218.471 395.753 219.068 394.851 219.751V215.326C395.778 214.765 396.863 214.265 398.106 213.826C399.349 213.387 400.812 213.168 402.495 213.168C404.348 213.168 405.884 213.485 407.103 214.119C408.346 214.728 409.272 215.582 409.882 216.679C410.492 217.776 410.796 219.044 410.796 220.482C410.796 221.628 410.552 222.738 410.065 223.81C409.577 224.883 408.931 225.919 408.127 226.919C407.346 227.918 406.469 228.869 405.493 229.771C404.543 230.649 403.58 231.478 402.604 232.258C401.629 233.014 400.727 233.697 399.898 234.306L398.837 233.392H411.235V238H394.632ZM426.361 238.439C422.851 238.439 420.254 237.39 418.572 235.294C416.889 233.197 416.048 230.052 416.048 225.858C416.048 221.665 416.889 218.52 418.572 216.423C420.254 214.302 422.851 213.241 426.361 213.241C429.897 213.241 432.505 214.302 434.188 216.423C435.87 218.52 436.711 221.665 436.711 225.858C436.711 230.052 435.87 233.197 434.188 235.294C432.505 237.39 429.897 238.439 426.361 238.439ZM426.361 234.343C426.995 234.343 427.629 234.245 428.263 234.05C428.897 233.855 429.47 233.477 429.982 232.917C430.494 232.331 430.896 231.478 431.189 230.357C431.506 229.211 431.664 227.711 431.664 225.858C431.664 223.981 431.506 222.482 431.189 221.36C430.896 220.238 430.494 219.397 429.982 218.837C429.47 218.251 428.897 217.861 428.263 217.666C427.629 217.447 426.995 217.337 426.361 217.337C425.728 217.337 425.094 217.447 424.46 217.666C423.85 217.861 423.289 218.251 422.777 218.837C422.265 219.397 421.851 220.238 421.534 221.36C421.241 222.482 421.095 223.981 421.095 225.858C421.095 227.711 421.241 229.211 421.534 230.357C421.851 231.478 422.265 232.331 422.777 232.917C423.289 233.477 423.85 233.855 424.46 234.05C425.094 234.245 425.728 234.343 426.361 234.343ZM441.435 238V234.379C442.264 233.843 443.178 233.197 444.177 232.441C445.201 231.661 446.201 230.808 447.176 229.881C448.176 228.93 449.078 227.955 449.883 226.955C450.712 225.931 451.37 224.92 451.857 223.92C452.369 222.92 452.625 221.97 452.625 221.067C452.625 220.263 452.455 219.58 452.113 219.019C451.772 218.434 451.248 217.983 450.541 217.666C449.858 217.349 449.005 217.191 447.981 217.191C446.713 217.191 445.567 217.447 444.543 217.959C443.519 218.471 442.556 219.068 441.654 219.751V215.326C442.58 214.765 443.665 214.265 444.909 213.826C446.152 213.387 447.615 213.168 449.297 213.168C451.15 213.168 452.686 213.485 453.905 214.119C455.149 214.728 456.075 215.582 456.685 216.679C457.294 217.776 457.599 219.044 457.599 220.482C457.599 221.628 457.355 222.738 456.868 223.81C456.38 224.883 455.734 225.919 454.929 226.919C454.149 227.918 453.272 228.869 452.296 229.771C451.345 230.649 450.382 231.478 449.407 232.258C448.432 233.014 447.53 233.697 446.701 234.306L445.64 233.392H458.038V238H441.435ZM470.787 238.293C469.446 238.293 468.191 238.122 467.02 237.781C465.874 237.415 464.814 236.988 463.839 236.501V232.149C464.814 232.709 465.838 233.221 466.911 233.685C468.008 234.123 469.202 234.343 470.495 234.343C472.128 234.343 473.396 234.05 474.298 233.465C475.2 232.88 475.651 232.027 475.651 230.905C475.651 229.759 475.237 228.857 474.408 228.199C473.579 227.541 472.226 227.211 470.348 227.211H467.057V223.335H470.458C471.823 223.335 472.835 223.067 473.493 222.53C474.152 221.97 474.481 221.25 474.481 220.373C474.481 219.641 474.286 219.056 473.896 218.617C473.53 218.154 473.006 217.825 472.323 217.63C471.64 217.41 470.848 217.301 469.946 217.301C469.044 217.301 468.154 217.41 467.276 217.63C466.399 217.849 465.423 218.215 464.351 218.727V214.741C465.204 214.326 466.143 213.985 467.167 213.717C468.215 213.424 469.312 213.278 470.458 213.278C471.701 213.278 472.835 213.424 473.859 213.717C474.908 214.009 475.81 214.448 476.565 215.033C477.321 215.594 477.906 216.289 478.321 217.118C478.735 217.922 478.943 218.849 478.943 219.897C478.943 220.653 478.808 221.323 478.54 221.909C478.272 222.494 477.943 222.994 477.553 223.408C477.163 223.822 476.773 224.152 476.383 224.395C476.017 224.615 475.712 224.749 475.468 224.798C475.834 224.871 476.273 225.066 476.785 225.383C477.297 225.7 477.797 226.126 478.284 226.663C478.796 227.175 479.223 227.809 479.564 228.565C479.906 229.296 480.076 230.137 480.076 231.088C480.076 232.258 479.845 233.294 479.381 234.197C478.918 235.074 478.272 235.818 477.443 236.427C476.614 237.037 475.639 237.5 474.517 237.817C473.396 238.134 472.152 238.293 470.787 238.293Z" fill="white"/>
</svg>
